<?xml version="1.0" encoding="UTF-8"?>
<!DOCTYPE svg PUBLIC "-//W3C//DTD SVG 1.1//EN" "http://www.w3.org/Graphics/SVG/1.1/DTD/svg11.dtd">
<!-- Creator: CorelDRAW 2019 (64-Bit) -->
<svg xmlns="http://www.w3.org/2000/svg" xml:space="preserve" width="945px" height="945px" version="1.1" style="shape-rendering:geometricPrecision; text-rendering:geometricPrecision; image-rendering:optimizeQuality; fill-rule:evenodd; clip-rule:evenodd"
viewBox="0 0 945 945"
 xmlns:xlink="http://www.w3.org/1999/xlink">
 <defs>
  <style type="text/css">
   <![CDATA[
    .fil0 {fill:none}
    .fil3 {fill:#FEFEFE}
    .fil1 {fill:#FEFEFE;fill-rule:nonzero}
    .fil2 {fill:url(#id3);fill-rule:nonzero}
   ]]>
  </style>
    <clipPath id="id0">
     <path d="M-0.26 0.27l945 0 0 945 -945 0 0 -945z"/>
    </clipPath>
     <clipPath id="id1">
      <path d="M-0.26 0.27l945 0 0 945 -945 0 0 -945z"/>
     </clipPath>
     <clipPath id="id2">
      <path d="M-0.26 0.27l945 0 0 945 -945 0 0 -945z"/>
     </clipPath>
  <linearGradient id="id3" gradientUnits="userSpaceOnUse" x1="472.06" y1="754.36" x2="472.06" y2="190.03">
   <stop offset="0" style="stop-opacity:1; stop-color:#26B33C"/>
   <stop offset="0.411765" style="stop-opacity:1; stop-color:#43C353"/>
   <stop offset="1" style="stop-opacity:1; stop-color:#60D36B"/>
  </linearGradient>
 </defs>
 <g id="Слой_x0020_1">
  <metadata id="CorelCorpID_0Corel-Layer"/>
  <g id="_1602337316016">
   <g>
   </g>
   <g style="clip-path:url(#id0)">
    <g id="_2381168051024">
    </g>
    <g style="clip-path:url(#id1)">
     <image x="-0.26" y="0.27" width="945" height="945.01" xlink:href="logo_Images\logo_ImgID1.png"/>
    </g>
    <g style="clip-path:url(#id2)">
    </g>
   </g>
   <polygon class="fil0" points="-0.26,0.27 944.74,0.27 944.74,945.27 -0.26,945.27 "/>
   <path class="fil1" d="M159.02 656.99l-50.25 179.24 181.7 -48.64c53.56,31.11 115.55,48.88 181.77,48.64 199.93,-0.72 363.46,-162.73 363.46,-363.47 0,-200.73 -162.73,-363.46 -363.46,-363.46 -200.74,0 -363.89,162.31 -363.47,363.46 0.14,67.24 18.46,130.21 50.25,184.23l0 0z"/>
   <path class="fil2" d="M228.85 615.92l-39.04 139.27 141.19 -37.79c41.61,24.17 89.78,37.98 141.24,37.79 155.36,-0.56 282.43,-126.45 282.43,-282.43 0,-155.98 -126.45,-282.43 -282.43,-282.43 -155.98,0 -282.77,126.13 -282.43,282.43 0.11,52.24 14.34,101.18 39.04,143.16l0 0z"/>
   <path class="fil3" d="M411.5 389.94c4.97,11.87 -20.26,36 -27.09,46.92 -1.99,3.17 -2.81,7.88 -1.08,11.21 7.52,14.51 17.47,27.74 27.84,40.36 8.27,10.06 17.79,19.14 27.84,27.42 12.75,10.48 26.17,20.26 40.36,28.7 10.45,6.22 21.7,11.22 33.24,15.1 3.47,1.18 8.34,2.32 11,-0.21 14.27,-13.56 24.9,-30.51 37.34,-45.75 2.19,-2.68 7.27,-1.98 10.36,-0.44 27.77,13.81 58.4,22.97 83.31,41.44 5.58,4.14 1.73,13.97 0.64,20.83 -1.46,9.35 -3.42,19.01 -8.19,27.2 -4.91,8.38 -12.2,15.44 -20.07,21.14 -8.86,6.43 -18.78,11.89 -29.36,14.68 -12.21,3.22 -25.19,4.18 -37.77,3.02 -14.45,-1.32 -28.44,-6.05 -42.3,-10.36 -16.69,-5.2 -33.27,-10.93 -49.2,-18.13 -12.22,-5.51 -23.77,-12.48 -34.97,-19.86 -10.15,-6.68 -19.75,-14.23 -28.92,-22.22 -11.59,-10.1 -22.82,-20.65 -33.24,-31.95 -10.05,-10.9 -18.95,-22.82 -28.05,-34.52 -8.03,-10.32 -16.18,-20.57 -23.31,-31.52 -6.07,-9.31 -11.47,-19.08 -16.19,-29.14 -4.08,-8.69 -7.27,-17.8 -10.14,-26.98 -1.68,-5.32 -2.99,-10.83 -3.46,-16.4 -0.69,-8.31 -0.94,-16.74 0,-25.03 0.87,-7.57 2.78,-15.07 5.4,-22.23 2.59,-7.1 6.06,-13.92 10.14,-20.28 3.59,-5.59 8.19,-10.49 12.74,-15.33 3.38,-3.6 6.82,-7.29 11,-9.93 3.51,-2.21 7.54,-3.85 11.66,-4.31 9,-1.03 34,-0.73 37.5,7.63l32.97 78.94 0 0z"/>
  </g>
 </g>
</svg>
